<svg xmlns="http://www.w3.org/2000/svg" width="166" height="24" fill="none" viewBox="0 0 166 24">
    <path fill="#671DDF" d="M82.22 2.953l-6.077 4.951h3.969V24l2.109-1.698V2.952zM83.973 20.864l6.185-5.076h-4.08V.061l-2.105 1.465v19.338zM160.531 5.844c.701.365 1.206.673 1.514.925l2.186-4.162c-1.093-.673-2.41-1.276-3.952-1.808C158.765.266 157.126 0 155.36 0c-1.682 0-3.238.28-4.667.84-1.402.562-2.523 1.388-3.364 2.482-.813 1.093-1.219 2.452-1.219 4.078 0 1.822.574 3.223 1.724 4.204 1.177.954 2.971 1.738 5.381 2.355 1.934.505 3.49.967 4.667 1.388 1.206.392 1.808 1.05 1.808 1.976 0 1.373-1.289 2.06-3.868 2.06-1.289 0-2.509-.154-3.658-.463-1.149-.308-2.158-.686-3.027-1.135-.841-.448-1.444-.855-1.808-1.22l-2.27 4.416c1.457.925 3.125 1.653 5.003 2.186 1.878.533 3.77.799 5.676.799 1.654 0 3.196-.224 4.625-.673 1.43-.476 2.579-1.233 3.448-2.27.897-1.066 1.345-2.467 1.345-4.205 0-1.43-.336-2.579-1.009-3.448-.645-.896-1.584-1.611-2.817-2.144-1.205-.532-2.635-1.009-4.289-1.43-1.878-.448-3.307-.854-4.288-1.219-.953-.364-1.43-.98-1.43-1.85 0-1.485 1.318-2.228 3.953-2.228.981 0 1.934.14 2.859.42.925.253 1.724.56 2.396.925z"/>
    <path fill="#671DDF" fill-rule="evenodd" d="M116.284 23.84c-1.85 0-3.532-.323-5.045-.967-1.514-.673-2.818-1.57-3.911-2.691-1.094-1.15-1.935-2.439-2.523-3.868-.588-1.43-.883-2.902-.883-4.415 0-1.542.308-3.027.925-4.457.617-1.43 1.486-2.69 2.608-3.784 1.121-1.121 2.437-2.004 3.951-2.649 1.514-.645 3.167-.967 4.961-.967 1.85 0 3.533.35 5.047 1.051 1.513.673 2.803 1.584 3.868 2.733 1.093 1.121 1.933 2.397 2.522 3.826.588 1.43.883 2.887.883 4.373 0 1.541-.308 3.027-.925 4.457-.616 1.401-1.486 2.663-2.607 3.784-1.093 1.093-2.396 1.962-3.91 2.607-1.513.644-3.167.967-4.961.967zm-7.233-11.9c0 1.262.296 2.468.884 3.617.588 1.12 1.415 2.032 2.48 2.733 1.093.7 2.397 1.05 3.91 1.05 1.542 0 2.845-.364 3.91-1.092 1.066-.757 1.878-1.696 2.439-2.818.561-1.149.842-2.326.842-3.531 0-1.262-.294-2.453-.883-3.574s-1.43-2.018-2.524-2.691c-1.065-.7-2.339-1.051-3.825-1.051-1.542 0-2.86.364-3.953 1.093-1.065.729-1.878 1.654-2.439 2.775-.56 1.121-.841 2.284-.841 3.49zM.5 23.672L10.759.168h4.162L25.14 23.672h-5.382l-2.355-5.508H8.278l-2.354 5.508H.5zM12.861 6.349l-3.447 7.4h6.769l-3.322-7.4z" clip-rule="evenodd"/>
    <path fill="#671DDF" d="M45.017.168l6.475 8.325L57.967.168h5.508l-9.292 11.9 8.997 11.604h-5.508l-6.18-7.989-6.139 7.989h-5.592l9.04-11.605L39.467.168h5.55z"/>
</svg>
