<svg xmlns="http://www.w3.org/2000/svg" width="132" height="40" fill="none"><path fill="#fff" d="M22.416 1.118C11.968-.227 2.41 7.158 1.076 17.605c-1.332 10.448 6.04 20.006 16.488 21.34 10.447 1.344 20.006-6.04 21.34-16.488v-.024C40.235 11.985 32.85 2.45 22.414 1.118z"/><path fill="#FF6C37" d="M50.335 13.655H47.08a.577.577 0 00-.42.144.448.448 0 00-.169.36v11.528c0 .156.096.312.24.384a.973.973 0 001.021 0 .418.418 0 00.252-.384V21.22h2.234a3.932 3.932 0 002.69-.9 3.66 3.66 0 001.02-2.835v-.156A3.643 3.643 0 0053 14.531a3.813 3.813 0 00-2.666-.876zm2.233 3.963c.049.66-.168 1.32-.588 1.825a2.294 2.294 0 01-1.741.648h-2.234v-5.14h2.234a2.273 2.273 0 011.681.613c.432.504.648 1.165.588 1.825l.06.229zm7.47-3.111a3.675 3.675 0 00-1.008 2.846v5.176a3.655 3.655 0 001.008 2.858 4.467 4.467 0 005.404 0 3.602 3.602 0 001.02-2.858v-5.14a3.6 3.6 0 00-1.02-2.894 4.488 4.488 0 00-5.404.012zm4.972 8.034a2.48 2.48 0 01-.589 1.837 2.207 2.207 0 01-1.669.613c-1.513 0-2.233-.829-2.233-2.462v-5.14c0-1.633.744-2.45 2.233-2.45a2.198 2.198 0 011.67.613c.432.504.648 1.165.588 1.825v5.164zm12.02-3.086a27.9 27.9 0 00-1.67-.685 4.365 4.365 0 01-1.428-.78 1.534 1.534 0 01-.553-1.297 1.478 1.478 0 01.649-1.357 2.938 2.938 0 011.669-.409 3.73 3.73 0 011.609.325c.252.12.504.228.769.312.192 0 .36-.108.444-.276.096-.156.168-.337.18-.517 0-.348-.336-.636-.985-.852a6.52 6.52 0 00-2.041-.3c-.445 0-.889.048-1.321.156a4.35 4.35 0 00-1.2.492c-.397.24-.71.588-.913 1.009a3.448 3.448 0 00-.349 1.585c-.024.672.18 1.345.577 1.885.372.48.864.865 1.429 1.117.564.24 1.116.456 1.669.66.528.192 1.02.505 1.417.901.396.42.6.973.576 1.537.048.6-.192 1.189-.636 1.597a2.598 2.598 0 01-1.766.54 3.146 3.146 0 01-1.248-.215 2.29 2.29 0 01-.817-.48l-.54-.517a.761.761 0 00-.397-.216.52.52 0 00-.408.252.963.963 0 00-.204.54c0 .409.36.84 1.117 1.261a4.78 4.78 0 002.594.649 4.038 4.038 0 002.737-.901 3.358 3.358 0 001.033-2.678 3.478 3.478 0 00-1.993-3.338zm13.822-5.8h-7.013a.483.483 0 00-.384.192.815.815 0 000 .925c.084.12.228.192.384.192h2.786v10.723c0 .156.084.3.216.384a.97.97 0 001.02 0 .416.416 0 00.229-.384V14.964h2.75c.156.012.3-.072.384-.204a.717.717 0 00.132-.469.742.742 0 00-.132-.444.478.478 0 00-.372-.192zm13.893 0c-.432 0-.817.3-1.117.912l-2.726 5.176-2.701-5.176c-.313-.612-.697-.912-1.117-.912h-.3a.642.642 0 00-.517.72v11.3c0 .168.084.324.24.396a.879.879 0 00.517.132c.168 0 .336-.06.48-.156a.417.417 0 00.228-.384v-9.078l2.606 4.971c.072.24.276.409.528.42a.62.62 0 00.565-.42l2.606-4.887v8.994c0 .156.084.3.216.384.312.18.696.18 1.02 0a.416.416 0 00.229-.384V14.34a.454.454 0 000-.18c-.084-.324-.409-.564-.757-.504zm10.112.012c-.493 0-.781.168-.877.492l-3.531 11.348a.246.246 0 000 .132c0 .192.109.372.277.457.18.107.384.168.588.168a.483.483 0 00.528-.337l.745-2.51h4.467l.745 2.51c.072.216.3.36.528.325.216.012.444-.049.624-.169a.443.443 0 00.277-.408l-4.371-12.008zm4.383 11.96v-.06l-3.531-11.408c-.084-.324-.372-.492-.864-.492l4.395 11.96zm-6.317-3.434l1.922-6.437 1.933 6.437h-3.855zm18.685-8.418a1.033 1.033 0 00-1.021 0 .461.461 0 00-.228.372v8.826l-4.287-8.394a2.177 2.177 0 00-.48-.708.931.931 0 00-.613-.216c-.492 0-.72.168-.72.504v11.528a.41.41 0 00.216.384.977.977 0 001.021 0 .443.443 0 00.216-.384v-8.754l4.467 8.658c.144.384.504.636.901.66.18 0 .36-.048.516-.144a.459.459 0 00.216-.384V14.147a.427.427 0 00-.204-.372zM31.434 10.052c-.108.048-.168.18-.12.288 0 .012.012.012.012.024.12.24.096.54-.084.745-.084.084-.096.228-.012.312l.012.012a.342.342 0 00.156 0 .23.23 0 00.168-.084c.3-.348.36-.84.145-1.249a.205.205 0 00-.277-.048z"/><path fill="#FF6C37" d="M22.537.17C11.585-1.249 1.57 6.497.165 17.45-1.24 28.4 6.493 38.428 17.445 39.832c10.952 1.405 20.967-6.328 22.384-17.28C41.234 11.601 33.5 1.574 22.536.17c.012 0 .012 0 0 0zm4.118 12.464c-.372.012-.72.156-.984.42l-7.421 7.422-1.586-1.585c7.301-7.29 8.634-7.362 9.991-6.257zM18.55 20.74l7.397-7.35a1.052 1.052 0 011.465 0c.204.205.312.481.3.757a1.042 1.042 0 01-.348.745l-7.818 6.893-.996-1.045zm.552 1.117l-1.837.468a.09.09 0 01-.108 0 .109.109 0 010-.12l1.116-1.117.83.769zm-4.683-.769l1.957-1.957 1.477 1.513-3.35.72a.136.136 0 01-.156-.108c-.012-.048 0-.084.036-.12l.036-.048zM8.355 31.26c-.049-.012-.097-.048-.109-.084a.245.245 0 010-.132l1.574-1.585 2.041 2.03-3.506-.229zm4.034-2.101a.386.386 0 00-.204.42l.336 1.441a.228.228 0 01-.096.24c-.072.06-.18.06-.24 0l-2.041-2.101 6.268-6.28 3.038-.65 1.453 1.454a40.483 40.483 0 01-8.502 5.452v.024h-.012zm8.814-5.716l-1.392-1.393 7.817-6.881c.072-.06.144-.132.204-.216-.252 2.233-3.398 5.403-6.629 8.49zm6.1-10.772a3.038 3.038 0 01.097-4.299 3.023 3.023 0 013.999-.168l-2.69 2.678a.219.219 0 000 .288l2.09 2.078a3.036 3.036 0 01-3.507-.6l.012.023zm4.288 0c-.144.132-.288.264-.457.372l-2.005-2.005 2.558-2.558a3.006 3.006 0 01-.096 4.191z"/></svg>