<svg xmlns="http://www.w3.org/2000/svg" width="49" height="48" fill="none" viewBox="0 0 49 48">
    <g clip-path="url(#clip0)">
        <mask id="4g0y5jiq4a" width="49" height="48" x="0" y="0" maskUnits="userSpaceOnUse">
            <path fill="#fff" fill-rule="evenodd" d="M34.077 47.672c.756.295 1.618.276 2.38-.091l9.883-4.755c1.039-.5 1.7-1.551 1.7-2.704V7.878c0-1.153-.661-2.204-1.7-2.703L36.458.419c-1.002-.481-2.174-.363-3.052.276-.126.09-.246.193-.358.305L14.13 18.26l-8.24-6.255c-.767-.583-1.84-.535-2.553.113L.693 14.522c-.871.793-.872 2.164-.002 2.958L7.838 24 .69 30.52c-.87.794-.87 2.165.002 2.958l2.643 2.404c.713.648 1.786.696 2.553.114l8.24-6.256L33.05 47c.298.3.65.525 1.028.672zm1.97-34.568L21.69 24l14.355 10.897V13.104z" clip-rule="evenodd"/>
        </mask>
        <g mask="url(#4g0y5jiq4a)">
            <path fill="#0065A9" d="M46.34 5.182L36.45.42C35.306-.13 33.937.102 33.04 1L.662 30.52c-.87.794-.87 2.165.002 2.958l2.645 2.404c.713.648 1.787.696 2.554.114l38.99-29.578c1.307-.993 3.186-.06 3.186 1.582v-.115c0-1.152-.66-2.203-1.699-2.703z"/>
            <g filter="url(#filter0_d)">
                <path fill="#007ACC" d="M46.34 42.818l-9.89 4.762c-1.144.55-2.513.318-3.411-.58L.662 17.48c-.87-.794-.87-2.165.002-2.958l2.645-2.404c.713-.648 1.787-.696 2.554-.114l38.99 29.578c1.307.993 3.186.06 3.186-1.582v.115c0 1.152-.66 2.203-1.699 2.703z"/>
            </g>
            <g filter="url(#filter1_d)">
                <path fill="#1F9CF0" d="M36.45 47.58c-1.144.551-2.512.319-3.41-.58 1.106 1.107 3 .323 3-1.243V2.243c0-1.566-1.894-2.35-3-1.243.898-.899 2.266-1.131 3.41-.58l9.89 4.755c1.038.5 1.7 1.55 1.7 2.703v32.244c0 1.153-.662 2.204-1.7 2.703l-9.89 4.755z"/>
            </g>
            <path style="mix-blend-mode:overlay" fill="url(#paint0_linear)" fill-rule="evenodd" d="M34.047 47.672c.756.295 1.619.276 2.382-.091l9.882-4.756c1.038-.5 1.699-1.55 1.699-2.703V7.878c0-1.153-.66-2.204-1.699-2.703L36.428.419c-1-.481-2.173-.363-3.052.276-.125.09-.245.193-.357.305L14.1 18.26l-8.24-6.255c-.767-.583-1.84-.535-2.553.113L.664 14.522c-.871.793-.872 2.164-.002 2.958L7.808 24 .662 30.52c-.87.794-.87 2.165.002 2.958l2.643 2.404c.712.648 1.786.696 2.553.114l8.24-6.256L33.02 47c.3.3.65.525 1.028.672zm1.97-34.568L21.662 24l14.355 10.897V13.104z" clip-rule="evenodd" opacity=".25"/>
        </g>
    </g>
    <defs>
        <filter id="filter0_d" width="90.696" height="78.945" x="-21.324" y="-9.736" color-interpolation-filters="sRGB" filterUnits="userSpaceOnUse">
            <feFlood flood-opacity="0" result="BackgroundImageFix"/>
            <feColorMatrix in="SourceAlpha" values="0 0 0 0 0 0 0 0 0 0 0 0 0 0 0 0 0 0 127 0"/>
            <feOffset/>
            <feGaussianBlur stdDeviation="10.667"/>
            <feColorMatrix values="0 0 0 0 0 0 0 0 0 0 0 0 0 0 0 0 0 0 0.25 0"/>
            <feBlend in2="BackgroundImageFix" mode="overlay" result="effect1_dropShadow"/>
            <feBlend in="SourceGraphic" in2="effect1_dropShadow" result="shape"/>
        </filter>
        <filter id="filter1_d" width="57.667" height="90.419" x="11.706" y="-21.21" color-interpolation-filters="sRGB" filterUnits="userSpaceOnUse">
            <feFlood flood-opacity="0" result="BackgroundImageFix"/>
            <feColorMatrix in="SourceAlpha" values="0 0 0 0 0 0 0 0 0 0 0 0 0 0 0 0 0 0 127 0"/>
            <feOffset/>
            <feGaussianBlur stdDeviation="10.667"/>
            <feColorMatrix values="0 0 0 0 0 0 0 0 0 0 0 0 0 0 0 0 0 0 0.25 0"/>
            <feBlend in2="BackgroundImageFix" mode="overlay" result="effect1_dropShadow"/>
            <feBlend in="SourceGraphic" in2="effect1_dropShadow" result="shape"/>
        </filter>
        <linearGradient id="paint0_linear" x1="24.01" x2="24.01" y1=".124" y2="47.876" gradientUnits="userSpaceOnUse">
            <stop stop-color="#fff"/>
            <stop offset="1" stop-color="#fff" stop-opacity="0"/>
        </linearGradient>
        <clipPath id="clip0">
            <path fill="#fff" d="M0 0H48V48H0z" transform="translate(0.0390625)"/>
        </clipPath>
    </defs>
</svg>
